<?xml version="1.0" standalone="no"?><!DOCTYPE svg PUBLIC "-//W3C//DTD SVG 1.1//EN" "http://www.w3.org/Graphics/SVG/1.1/DTD/svg11.dtd"><svg t="1529562508844" class="icon" style="" viewBox="0 0 1024 1024" version="1.1" xmlns="http://www.w3.org/2000/svg" p-id="2510" xmlns:xlink="http://www.w3.org/1999/xlink" width="200" height="200"><defs><style type="text/css"></style></defs><path d="M862.623078 189.654454 161.334967 189.654454c-53.776787 0-97.529267 43.771923-97.529267 97.601922l0 449.489294c0 53.827953 43.751457 97.599875 97.529267 97.599875l701.288111 0c53.81772 0 97.570199-43.771923 97.570199-97.599875L960.193277 287.256376C960.192254 233.426377 916.439774 189.654454 862.623078 189.654454zM908.859122 736.74567c0 25.51-20.736277 46.279023-46.237067 46.279023L161.334967 783.024693c-25.457812 0-46.195112-20.769023-46.195112-46.279023L115.139855 287.256376c0-25.51 20.7373-46.280046 46.195112-46.280046l701.288111 0c25.50079 0 46.237067 20.770046 46.237067 46.280046L908.860145 736.74567z" p-id="2511"></path><path d="M826.430784 347.350033 539.063891 347.350033c-14.177907 0-25.664519 11.465123-25.664519 25.656333 0 14.179954 11.486612 25.65531 25.664519 25.65531l287.366893 0c14.179954 0 25.664519-11.475356 25.664519-25.65531C852.095303 358.815155 840.611761 347.350033 826.430784 347.350033z" p-id="2512"></path><path d="M826.430784 478.251362 539.063891 478.251362c-14.177907 0-25.664519 11.476379-25.664519 25.65531 0 14.179954 11.486612 25.656333 25.664519 25.656333l287.366893 0c14.179954 0 25.664519-11.475356 25.664519-25.656333C852.095303 489.727741 840.611761 478.251362 826.430784 478.251362z" p-id="2513"></path><path d="M826.430784 609.153714 583.965543 609.153714c-14.179954 0-25.666566 11.476379-25.666566 25.65531 0 14.179954 11.486612 25.657356 25.666566 25.657356l242.465241 0c14.179954 0 25.664519-11.477402 25.664519-25.657356C852.095303 620.629069 840.611761 609.153714 826.430784 609.153714z" p-id="2514"></path><path d="M430.2363 541.195949c29.41596-24.486694 48.181349-61.362556 48.181349-102.542444 0-73.54297-59.832713-133.38694-133.346007-133.38694-73.573669 0-133.406382 59.84397-133.406382 133.38694 0 41.180911 18.767436 78.05575 48.194652 102.544491-52.040237 23.760147-93.01444 68.949348-110.99393 126.817314-4.219091 13.521968 3.342118 27.910677 16.874319 32.120558 13.638625 4.164856 27.921933-3.352351 32.141024-16.885576 20.299325-65.327868 79.421864-109.204168 147.190317-109.204168 67.707055 0 126.830617 43.8763 147.128919 109.204168 3.40454 10.995425 13.595646 18.043958 24.518417 18.043958 2.506077 0 5.054109-0.375553 7.603165-1.158383 13.533224-4.208858 21.11183-18.59859 16.894785-32.120558C523.236414 610.146321 482.261187 564.957119 430.2363 541.195949zM345.071641 356.590488c45.236274 0 82.034365 36.808324 82.034365 82.063017 0 45.25674-36.798091 82.064041-82.034365 82.064041-45.255717 0-82.09474-36.807301-82.09474-82.064041C262.977925 393.398812 299.815925 356.590488 345.071641 356.590488z" p-id="2515"></path></svg>