<?xml version="1.0" standalone="no"?><!DOCTYPE svg PUBLIC "-//W3C//DTD SVG 1.1//EN" "http://www.w3.org/Graphics/SVG/1.1/DTD/svg11.dtd"><svg t="1530080537189" class="icon" style="" viewBox="0 0 1024 1024" version="1.1" xmlns="http://www.w3.org/2000/svg" p-id="5384" xmlns:xlink="http://www.w3.org/1999/xlink" width="200" height="200"><defs><style type="text/css"></style></defs><path d="M1021.50656 243.48672c-11.008-49.85344-55.36256-87.19872-108.35456-87.296l-0.06144 0.06144L110.65344 156.672C49.792 156.60544 0.03072 206.36672 0 267.36128l0 489.56928c0.03072 60.89728 49.664 110.592 110.65344 110.592l802.21184 0.256c61.14816-0.09728 110.90944-49.95072 111.00672-110.94528L1024 267.23328C1023.90272 259.00544 1023.20128 251.136 1021.50656 243.48672zM968.77056 756.93056c-0.1024 30.78144-25.0624 55.77728-55.87456 55.83872l-802.176-0.29184c-30.65344-0.06656-55.61344-24.99072-55.64928-55.68L55.04 390.272l913.92-0.256C968.92928 443.52 968.77056 756.93056 968.77056 756.93056zM968.92928 281.50272 55.07072 281.856l0-14.49472c-0.06656-14.94528 5.76-28.86656 16.28672-39.39328 10.56256-10.52672 24.448-16.32256 39.32672-16.32256l802.36544-0.41472 0.32256 0c14.72 0.19456 28.61056 5.888 39.13728 16.41472 10.53184 10.624 16.35328 24.54528 16.41984 39.45984C968.92928 267.136 968.92928 274.688 968.92928 281.50272zM874.67008 697.18016c0 27.33568-22.15936 49.49504-49.49504 49.49504s-49.49504-22.15936-49.49504-49.49504 22.15936-49.49504 49.49504-49.49504S874.67008 669.84448 874.67008 697.18016zM673.28 557.23008 87.89504 557.23008 87.89504 459.09504 673.28 459.09504 673.28 557.23008z" p-id="5385"></path></svg>