<?xml version="1.0" standalone="no"?><!DOCTYPE svg PUBLIC "-//W3C//DTD SVG 1.1//EN" "http://www.w3.org/Graphics/SVG/1.1/DTD/svg11.dtd"><svg t="1524118719244" class="icon" style="" viewBox="0 0 1024 1024" version="1.1" xmlns="http://www.w3.org/2000/svg" p-id="2062" xmlns:xlink="http://www.w3.org/1999/xlink" width="200" height="200"><defs><style type="text/css"></style></defs><path d="M661.325957 320.009338c-23.561625 0-42.664705-19.10308-42.664705-42.664706V42.689265H192.015222c-35.341926 0-63.996546 28.65462-63.996547 63.996546v810.627355c0 35.341926 28.65462 63.996546 63.996547 63.996546h639.969556c35.341926 0 63.996546-28.65462 63.996547-63.996546v-597.303828H661.325957z m21.331841 383.981324H597.328387l-85.32941-99.552343-85.329411 99.552343h-85.329411l127.994116-149.325957-127.993092-149.325957h85.32941l85.329411 99.547227 85.329411-99.547227h85.32941L554.664705 554.664705l127.993093 149.325957z" p-id="2063"></path><path d="M682.657798 65.192791v190.818977h192.668091z" p-id="2064"></path></svg>