<?xml version="1.0" standalone="no"?><!DOCTYPE svg PUBLIC "-//W3C//DTD SVG 1.1//EN" "http://www.w3.org/Graphics/SVG/1.1/DTD/svg11.dtd"><svg t="1530079979229" class="icon" style="" viewBox="0 0 1024 1024" version="1.1" xmlns="http://www.w3.org/2000/svg" p-id="4633" xmlns:xlink="http://www.w3.org/1999/xlink" width="200" height="200"><defs><style type="text/css"></style></defs><path d="M512 0C228.072727 0 0 228.072727 0 512s228.072727 512 512 512 512-228.072727 512-512S795.927273 0 512 0z m-125.672727 539.927273v125.672727h-86.109091v-179.2h418.909091v179.2h-86.109091v-125.672727H386.327273zM235.054545 349.090909c48.872727-20.945455 81.454545-58.181818 97.745455-111.709091h83.781818c-9.309091 32.581818-20.945455 58.181818-34.909091 76.8V465.454545h-83.781818v-86.10909c-18.618182 6.981818-39.563636 13.963636-62.836364 18.618181V349.090909z m521.309091 423.563636c-114.036364-6.981818-200.145455-32.581818-253.672727-72.145454-53.527273 41.890909-141.963636 65.163636-265.309091 72.145454V721.454545c153.6-18.618182 228.072727-60.509091 218.763637-125.672727v-34.909091h93.090909v34.909091c-6.981818 65.163636 60.509091 107.054545 207.127272 125.672727v51.2z m-90.763636-295.563636c-93.090909 2.327273-151.272727-44.218182-176.872727-134.981818h-88.436364v-53.527273h74.472727c-2.327273-16.290909-4.654545-32.581818-4.654545-51.2h86.109091c2.327273 18.618182 4.654545 34.909091 6.981818 51.2h58.181818v-41.890909h74.472727v41.890909h62.836364v53.527273h-183.854545c16.290909 55.854545 46.545455 83.781818 90.763636 81.454545 27.927273 0 41.890909-13.963636 39.563636-39.563636H768c4.654545 65.163636-30.254545 95.418182-102.4 93.090909z" p-id="4634"></path></svg>